<?xml version="1.0" encoding="UTF-8" standalone="no"?>
<!DOCTYPE svg PUBLIC "-//W3C//DTD SVG 1.1//EN"
 "http://www.w3.org/Graphics/SVG/1.1/DTD/svg11.dtd">
<!-- Generated by graphviz version 2.43.0 (0)
 -->
<!-- Title: g Pages: 1 -->
<svg width="186pt" height="336pt"
 viewBox="0.00 0.00 185.68 336.00" xmlns="http://www.w3.org/2000/svg" xmlns:xlink="http://www.w3.org/1999/xlink">
<g id="graph0" class="graph" transform="scale(1 1) rotate(0) translate(4 332)">
<title>g</title>
<polygon fill="white" stroke="transparent" points="-4,4 -4,-332 181.68,-332 181.68,4 -4,4"/>
<!-- node0 -->
<g id="node1" class="node">
<title>node0</title>
<polygon fill="none" stroke="black" points="0,-135.5 0,-239.5 54,-239.5 54,-135.5 0,-135.5"/>
<text text-anchor="middle" x="27" y="-222.7" font-family="Helvetica,Arial,sans-serif" font-size="16.00">0</text>
<polyline fill="none" stroke="black" points="0,-213.5 54,-213.5 "/>
<text text-anchor="middle" x="27" y="-196.7" font-family="Helvetica,Arial,sans-serif" font-size="16.00">1</text>
<polyline fill="none" stroke="black" points="0,-187.5 54,-187.5 "/>
<text text-anchor="middle" x="27" y="-170.7" font-family="Helvetica,Arial,sans-serif" font-size="16.00">2</text>
<polyline fill="none" stroke="black" points="0,-161.5 54,-161.5 "/>
<text text-anchor="middle" x="27" y="-144.7" font-family="Helvetica,Arial,sans-serif" font-size="16.00">3</text>
</g>
<!-- node1 -->
<g id="node2" class="node">
<title>node1</title>
<polygon fill="none" stroke="black" points="106.84,-249.5 106.84,-327.5 160.84,-327.5 160.84,-249.5 106.84,-249.5"/>
<text text-anchor="middle" x="133.84" y="-310.7" font-family="Helvetica,Arial,sans-serif" font-size="16.00">q</text>
<polyline fill="none" stroke="black" points="106.84,-301.5 160.84,-301.5 "/>
<text text-anchor="middle" x="133.84" y="-284.7" font-family="Helvetica,Arial,sans-serif" font-size="16.00">w</text>
<polyline fill="none" stroke="black" points="106.84,-275.5 160.84,-275.5 "/>
<text text-anchor="middle" x="133.84" y="-258.7" font-family="Helvetica,Arial,sans-serif" font-size="16.00">e</text>
</g>
<!-- node0&#45;&gt;node1 -->
<g id="edge1" class="edge">
<title>node0:f0&#45;&gt;node1:f0</title>
<path fill="none" stroke="black" d="M54,-226.5C95.49,-226.5 66.52,-300.02 95.9,-312.66"/>
<polygon fill="black" stroke="black" points="95.37,-316.12 105.84,-314.5 96.64,-309.24 95.37,-316.12"/>
</g>
<!-- node2 -->
<g id="node3" class="node">
<title>node2</title>
<polygon fill="none" stroke="black" points="106.84,-97.5 106.84,-175.5 160.84,-175.5 160.84,-97.5 106.84,-97.5"/>
<text text-anchor="middle" x="133.84" y="-158.7" font-family="Helvetica,Arial,sans-serif" font-size="16.00">q</text>
<polyline fill="none" stroke="black" points="106.84,-149.5 160.84,-149.5 "/>
<text text-anchor="middle" x="133.84" y="-132.7" font-family="Helvetica,Arial,sans-serif" font-size="16.00">w</text>
<polyline fill="none" stroke="black" points="106.84,-123.5 160.84,-123.5 "/>
<text text-anchor="middle" x="133.84" y="-106.7" font-family="Helvetica,Arial,sans-serif" font-size="16.00">e</text>
</g>
<!-- node0&#45;&gt;node2 -->
<g id="edge2" class="edge">
<title>node0:f2&#45;&gt;node2:f0</title>
<path fill="none" stroke="black" d="M54,-174.5C73.77,-174.5 80.19,-166.11 95.57,-163.36"/>
<polygon fill="black" stroke="black" points="96.17,-166.83 105.84,-162.5 95.58,-159.85 96.17,-166.83"/>
</g>
<!-- node4 -->
<g id="node4" class="node">
<title>node4</title>
<polygon fill="none" stroke="black" points="106.84,-0.5 106.84,-78.5 160.84,-78.5 160.84,-0.5 106.84,-0.5"/>
<text text-anchor="middle" x="133.84" y="-61.7" font-family="Helvetica,Arial,sans-serif" font-size="16.00">q</text>
<polyline fill="none" stroke="black" points="106.84,-52.5 160.84,-52.5 "/>
<text text-anchor="middle" x="133.84" y="-35.7" font-family="Helvetica,Arial,sans-serif" font-size="16.00">w</text>
<polyline fill="none" stroke="black" points="106.84,-26.5 160.84,-26.5 "/>
<text text-anchor="middle" x="133.84" y="-9.7" font-family="Helvetica,Arial,sans-serif" font-size="16.00">e</text>
</g>
<!-- node0&#45;&gt;node4 -->
<g id="edge4" class="edge">
<title>node0:f3&#45;&gt;node4:f0</title>
<path fill="none" stroke="black" d="M54,-148.5C93.59,-148.5 68.03,-79.74 95.91,-67.39"/>
<polygon fill="black" stroke="black" points="96.67,-70.81 105.84,-65.5 95.36,-63.93 96.67,-70.81"/>
</g>
<!-- node3 -->
<g id="node5" class="node">
<title>node3</title>
<ellipse fill="none" stroke="black" cx="133.84" cy="-212.5" rx="43.68" ry="18.27"/>
<text text-anchor="middle" x="133.84" y="-208.7" font-family="Helvetica,Arial,sans-serif" font-size="16.00">node3</text>
</g>
<!-- node0&#45;&gt;node3 -->
<g id="edge3" class="edge">
<title>node0:f1&#45;&gt;node3:f0</title>
<path fill="none" stroke="black" d="M54,-200.5C63.86,-200.5 74.35,-201.43 84.34,-202.77"/>
<polygon fill="black" stroke="black" points="84.11,-206.28 94.52,-204.3 85.15,-199.35 84.11,-206.28"/>
</g>
</g>
</svg>
