<?xml version="1.0" encoding="UTF-8" standalone="no"?>
<!DOCTYPE svg PUBLIC "-//W3C//DTD SVG 1.1//EN"
 "http://www.w3.org/Graphics/SVG/1.1/DTD/svg11.dtd">
<!-- Generated by graphviz version 2.43.0 (0)
 -->
<!-- Title: g Pages: 1 -->
<svg width="332pt" height="960pt"
 viewBox="0.00 0.00 332.00 960.00" xmlns="http://www.w3.org/2000/svg" xmlns:xlink="http://www.w3.org/1999/xlink">
<g id="graph0" class="graph" transform="scale(1 1) rotate(0) translate(4 956)">
<title>g</title>
<polygon fill="white" stroke="transparent" points="-4,4 -4,-956 328,-956 328,4 -4,4"/>
<!-- table -->
<g id="node1" class="node">
<title>table</title>
<polygon fill="none" stroke="black" points="0,-137.5 0,-865.5 54,-865.5 54,-137.5 0,-137.5"/>
<text text-anchor="middle" x="27" y="-848.7" font-family="Helvetica,Arial,sans-serif" font-size="16.00">0</text>
<polyline fill="none" stroke="black" points="0,-839.5 54,-839.5 "/>
<text text-anchor="middle" x="27" y="-822.7" font-family="Helvetica,Arial,sans-serif" font-size="16.00"> </text>
<polyline fill="none" stroke="black" points="0,-813.5 54,-813.5 "/>
<text text-anchor="middle" x="27" y="-796.7" font-family="Helvetica,Arial,sans-serif" font-size="16.00"> </text>
<polyline fill="none" stroke="black" points="0,-787.5 54,-787.5 "/>
<text text-anchor="middle" x="27" y="-770.7" font-family="Helvetica,Arial,sans-serif" font-size="16.00">1</text>
<polyline fill="none" stroke="black" points="0,-761.5 54,-761.5 "/>
<text text-anchor="middle" x="27" y="-744.7" font-family="Helvetica,Arial,sans-serif" font-size="16.00"> </text>
<polyline fill="none" stroke="black" points="0,-735.5 54,-735.5 "/>
<text text-anchor="middle" x="27" y="-718.7" font-family="Helvetica,Arial,sans-serif" font-size="16.00"> </text>
<polyline fill="none" stroke="black" points="0,-709.5 54,-709.5 "/>
<text text-anchor="middle" x="27" y="-692.7" font-family="Helvetica,Arial,sans-serif" font-size="16.00">2</text>
<polyline fill="none" stroke="black" points="0,-683.5 54,-683.5 "/>
<text text-anchor="middle" x="27" y="-666.7" font-family="Helvetica,Arial,sans-serif" font-size="16.00"> </text>
<polyline fill="none" stroke="black" points="0,-657.5 54,-657.5 "/>
<text text-anchor="middle" x="27" y="-640.7" font-family="Helvetica,Arial,sans-serif" font-size="16.00"> </text>
<polyline fill="none" stroke="black" points="0,-631.5 54,-631.5 "/>
<text text-anchor="middle" x="27" y="-614.7" font-family="Helvetica,Arial,sans-serif" font-size="16.00">3</text>
<polyline fill="none" stroke="black" points="0,-605.5 54,-605.5 "/>
<text text-anchor="middle" x="27" y="-588.7" font-family="Helvetica,Arial,sans-serif" font-size="16.00"> </text>
<polyline fill="none" stroke="black" points="0,-579.5 54,-579.5 "/>
<text text-anchor="middle" x="27" y="-562.7" font-family="Helvetica,Arial,sans-serif" font-size="16.00"> </text>
<polyline fill="none" stroke="black" points="0,-553.5 54,-553.5 "/>
<text text-anchor="middle" x="27" y="-536.7" font-family="Helvetica,Arial,sans-serif" font-size="16.00">4</text>
<polyline fill="none" stroke="black" points="0,-527.5 54,-527.5 "/>
<text text-anchor="middle" x="27" y="-510.7" font-family="Helvetica,Arial,sans-serif" font-size="16.00"> </text>
<polyline fill="none" stroke="black" points="0,-501.5 54,-501.5 "/>
<text text-anchor="middle" x="27" y="-484.7" font-family="Helvetica,Arial,sans-serif" font-size="16.00"> </text>
<polyline fill="none" stroke="black" points="0,-475.5 54,-475.5 "/>
<text text-anchor="middle" x="27" y="-458.7" font-family="Helvetica,Arial,sans-serif" font-size="16.00">5</text>
<polyline fill="none" stroke="black" points="0,-449.5 54,-449.5 "/>
<text text-anchor="middle" x="27" y="-432.7" font-family="Helvetica,Arial,sans-serif" font-size="16.00"> </text>
<polyline fill="none" stroke="black" points="0,-423.5 54,-423.5 "/>
<text text-anchor="middle" x="27" y="-406.7" font-family="Helvetica,Arial,sans-serif" font-size="16.00"> </text>
<polyline fill="none" stroke="black" points="0,-397.5 54,-397.5 "/>
<text text-anchor="middle" x="27" y="-380.7" font-family="Helvetica,Arial,sans-serif" font-size="16.00">6</text>
<polyline fill="none" stroke="black" points="0,-371.5 54,-371.5 "/>
<text text-anchor="middle" x="27" y="-354.7" font-family="Helvetica,Arial,sans-serif" font-size="16.00"> </text>
<polyline fill="none" stroke="black" points="0,-345.5 54,-345.5 "/>
<text text-anchor="middle" x="27" y="-328.7" font-family="Helvetica,Arial,sans-serif" font-size="16.00"> </text>
<polyline fill="none" stroke="black" points="0,-319.5 54,-319.5 "/>
<text text-anchor="middle" x="27" y="-302.7" font-family="Helvetica,Arial,sans-serif" font-size="16.00">7</text>
<polyline fill="none" stroke="black" points="0,-293.5 54,-293.5 "/>
<text text-anchor="middle" x="27" y="-276.7" font-family="Helvetica,Arial,sans-serif" font-size="16.00"> </text>
<polyline fill="none" stroke="black" points="0,-267.5 54,-267.5 "/>
<text text-anchor="middle" x="27" y="-250.7" font-family="Helvetica,Arial,sans-serif" font-size="16.00"> </text>
<polyline fill="none" stroke="black" points="0,-241.5 54,-241.5 "/>
<text text-anchor="middle" x="27" y="-224.7" font-family="Helvetica,Arial,sans-serif" font-size="16.00">8</text>
<polyline fill="none" stroke="black" points="0,-215.5 54,-215.5 "/>
<text text-anchor="middle" x="27" y="-198.7" font-family="Helvetica,Arial,sans-serif" font-size="16.00"> </text>
<polyline fill="none" stroke="black" points="0,-189.5 54,-189.5 "/>
<text text-anchor="middle" x="27" y="-172.7" font-family="Helvetica,Arial,sans-serif" font-size="16.00"> </text>
<polyline fill="none" stroke="black" points="0,-163.5 54,-163.5 "/>
<text text-anchor="middle" x="27" y="-146.7" font-family="Helvetica,Arial,sans-serif" font-size="16.00">9</text>
</g>
<!-- node0x557606ccbeb0_0 -->
<g id="node2" class="node">
<title>node0x557606ccbeb0_0</title>
<polygon fill="none" stroke="black" points="90,-873.5 90,-951.5 144,-951.5 144,-873.5 90,-873.5"/>
<text text-anchor="middle" x="117" y="-934.7" font-family="Helvetica,Arial,sans-serif" font-size="16.00">0</text>
<polyline fill="none" stroke="black" points="90,-925.5 144,-925.5 "/>
<text text-anchor="middle" x="117" y="-908.7" font-family="Helvetica,Arial,sans-serif" font-size="16.00"> </text>
<polyline fill="none" stroke="black" points="90,-899.5 144,-899.5 "/>
<text text-anchor="middle" x="117" y="-882.7" font-family="Helvetica,Arial,sans-serif" font-size="16.00">&#45;1</text>
</g>
<!-- table&#45;&gt;node0x557606ccbeb0_0 -->
<g id="edge1" class="edge">
<title>table:f0&#45;&gt;node0x557606ccbeb0_0:f0</title>
<path fill="none" stroke="black" d="M54,-852.5C91.39,-852.5 56.88,-922.52 80.22,-936.2"/>
<polygon fill="black" stroke="black" points="79.46,-939.62 90,-938.5 81.07,-932.8 79.46,-939.62"/>
</g>
<!-- node0x557606ccbed0_0 -->
<g id="node3" class="node">
<title>node0x557606ccbed0_0</title>
<polygon fill="none" stroke="black" points="90,-776.5 90,-854.5 144,-854.5 144,-776.5 90,-776.5"/>
<text text-anchor="middle" x="117" y="-837.7" font-family="Helvetica,Arial,sans-serif" font-size="16.00">0</text>
<polyline fill="none" stroke="black" points="90,-828.5 144,-828.5 "/>
<text text-anchor="middle" x="117" y="-811.7" font-family="Helvetica,Arial,sans-serif" font-size="16.00"> </text>
<polyline fill="none" stroke="black" points="90,-802.5 144,-802.5 "/>
<text text-anchor="middle" x="117" y="-785.7" font-family="Helvetica,Arial,sans-serif" font-size="16.00">&#45;1</text>
</g>
<!-- table&#45;&gt;node0x557606ccbed0_0 -->
<g id="edge2" class="edge">
<title>table:f1&#45;&gt;node0x557606ccbed0_0:f0</title>
<path fill="none" stroke="black" d="M54,-774.5C83.58,-774.5 63.08,-825.8 80.13,-838.62"/>
<polygon fill="black" stroke="black" points="79.42,-842.06 90,-841.5 81.38,-835.34 79.42,-842.06"/>
</g>
<!-- node0x557606ccbef0_0 -->
<g id="node4" class="node">
<title>node0x557606ccbef0_0</title>
<polygon fill="none" stroke="black" points="90,-679.5 90,-757.5 144,-757.5 144,-679.5 90,-679.5"/>
<text text-anchor="middle" x="117" y="-740.7" font-family="Helvetica,Arial,sans-serif" font-size="16.00">0</text>
<polyline fill="none" stroke="black" points="90,-731.5 144,-731.5 "/>
<text text-anchor="middle" x="117" y="-714.7" font-family="Helvetica,Arial,sans-serif" font-size="16.00"> </text>
<polyline fill="none" stroke="black" points="90,-705.5 144,-705.5 "/>
<text text-anchor="middle" x="117" y="-688.7" font-family="Helvetica,Arial,sans-serif" font-size="16.00">&#45;1</text>
</g>
<!-- table&#45;&gt;node0x557606ccbef0_0 -->
<g id="edge3" class="edge">
<title>table:f2&#45;&gt;node0x557606ccbef0_0:f0</title>
<path fill="none" stroke="black" d="M54,-696.5C76.5,-696.5 67.68,-730.67 80.39,-741.35"/>
<polygon fill="black" stroke="black" points="79.41,-744.71 90,-744.5 81.59,-738.06 79.41,-744.71"/>
</g>
<!-- node0x557606ccbf10_0 -->
<g id="node5" class="node">
<title>node0x557606ccbf10_0</title>
<polygon fill="none" stroke="black" points="90,-582.5 90,-660.5 144,-660.5 144,-582.5 90,-582.5"/>
<text text-anchor="middle" x="117" y="-643.7" font-family="Helvetica,Arial,sans-serif" font-size="16.00">0</text>
<polyline fill="none" stroke="black" points="90,-634.5 144,-634.5 "/>
<text text-anchor="middle" x="117" y="-617.7" font-family="Helvetica,Arial,sans-serif" font-size="16.00"> </text>
<polyline fill="none" stroke="black" points="90,-608.5 144,-608.5 "/>
<text text-anchor="middle" x="117" y="-591.7" font-family="Helvetica,Arial,sans-serif" font-size="16.00">&#45;1</text>
</g>
<!-- table&#45;&gt;node0x557606ccbf10_0 -->
<g id="edge4" class="edge">
<title>table:f3&#45;&gt;node0x557606ccbf10_0:f0</title>
<path fill="none" stroke="black" d="M54,-618.5C70.37,-618.5 70.46,-636.92 80.22,-644.4"/>
<polygon fill="black" stroke="black" points="79.41,-647.81 90,-647.5 81.53,-641.14 79.41,-647.81"/>
</g>
<!-- node0x557606ccbf30_0 -->
<g id="node6" class="node">
<title>node0x557606ccbf30_0</title>
<polygon fill="none" stroke="black" points="90,-485.5 90,-563.5 144,-563.5 144,-485.5 90,-485.5"/>
<text text-anchor="middle" x="117" y="-546.7" font-family="Helvetica,Arial,sans-serif" font-size="16.00">0</text>
<polyline fill="none" stroke="black" points="90,-537.5 144,-537.5 "/>
<text text-anchor="middle" x="117" y="-520.7" font-family="Helvetica,Arial,sans-serif" font-size="16.00"> </text>
<polyline fill="none" stroke="black" points="90,-511.5 144,-511.5 "/>
<text text-anchor="middle" x="117" y="-494.7" font-family="Helvetica,Arial,sans-serif" font-size="16.00">&#45;1</text>
</g>
<!-- table&#45;&gt;node0x557606ccbf30_0 -->
<g id="edge6" class="edge">
<title>table:f4&#45;&gt;node0x557606ccbf30_0:f0</title>
<path fill="none" stroke="black" d="M54,-540.5C66.58,-540.5 71.23,-546.24 79.97,-549.02"/>
<polygon fill="black" stroke="black" points="79.6,-552.51 90,-550.5 80.62,-545.58 79.6,-552.51"/>
</g>
<!-- node0x557606ccbf50_0 -->
<g id="node8" class="node">
<title>node0x557606ccbf50_0</title>
<polygon fill="none" stroke="black" points="90,-388.5 90,-466.5 144,-466.5 144,-388.5 90,-388.5"/>
<text text-anchor="middle" x="117" y="-449.7" font-family="Helvetica,Arial,sans-serif" font-size="16.00">0</text>
<polyline fill="none" stroke="black" points="90,-440.5 144,-440.5 "/>
<text text-anchor="middle" x="117" y="-423.7" font-family="Helvetica,Arial,sans-serif" font-size="16.00"> </text>
<polyline fill="none" stroke="black" points="90,-414.5 144,-414.5 "/>
<text text-anchor="middle" x="117" y="-397.7" font-family="Helvetica,Arial,sans-serif" font-size="16.00">&#45;1</text>
</g>
<!-- table&#45;&gt;node0x557606ccbf50_0 -->
<g id="edge8" class="edge">
<title>table:f5&#45;&gt;node0x557606ccbf50_0:f0</title>
<path fill="none" stroke="black" d="M54,-462.5C66.5,-462.5 71.26,-457.33 80.01,-454.83"/>
<polygon fill="black" stroke="black" points="80.55,-458.29 90,-453.5 79.63,-451.35 80.55,-458.29"/>
</g>
<!-- node0x557606ccbf70_0 -->
<g id="node10" class="node">
<title>node0x557606ccbf70_0</title>
<polygon fill="none" stroke="black" points="90,-291.5 90,-369.5 144,-369.5 144,-291.5 90,-291.5"/>
<text text-anchor="middle" x="117" y="-352.7" font-family="Helvetica,Arial,sans-serif" font-size="16.00">0</text>
<polyline fill="none" stroke="black" points="90,-343.5 144,-343.5 "/>
<text text-anchor="middle" x="117" y="-326.7" font-family="Helvetica,Arial,sans-serif" font-size="16.00"> </text>
<polyline fill="none" stroke="black" points="90,-317.5 144,-317.5 "/>
<text text-anchor="middle" x="117" y="-300.7" font-family="Helvetica,Arial,sans-serif" font-size="16.00">&#45;1</text>
</g>
<!-- table&#45;&gt;node0x557606ccbf70_0 -->
<g id="edge10" class="edge">
<title>table:f6&#45;&gt;node0x557606ccbf70_0:f0</title>
<path fill="none" stroke="black" d="M54,-384.5C70.15,-384.5 70.55,-366.72 80.3,-359.5"/>
<polygon fill="black" stroke="black" points="81.48,-362.8 90,-356.5 79.41,-356.11 81.48,-362.8"/>
</g>
<!-- node0x557606ccbf90_0 -->
<g id="node12" class="node">
<title>node0x557606ccbf90_0</title>
<polygon fill="none" stroke="black" points="90,-194.5 90,-272.5 144,-272.5 144,-194.5 90,-194.5"/>
<text text-anchor="middle" x="117" y="-255.7" font-family="Helvetica,Arial,sans-serif" font-size="16.00">0</text>
<polyline fill="none" stroke="black" points="90,-246.5 144,-246.5 "/>
<text text-anchor="middle" x="117" y="-229.7" font-family="Helvetica,Arial,sans-serif" font-size="16.00"> </text>
<polyline fill="none" stroke="black" points="90,-220.5 144,-220.5 "/>
<text text-anchor="middle" x="117" y="-203.7" font-family="Helvetica,Arial,sans-serif" font-size="16.00">&#45;1</text>
</g>
<!-- table&#45;&gt;node0x557606ccbf90_0 -->
<g id="edge12" class="edge">
<title>table:f7&#45;&gt;node0x557606ccbf90_0:f0</title>
<path fill="none" stroke="black" d="M54,-306.5C73.23,-306.5 72.73,-290.95 90,-282.5 96.39,-279.37 104.14,-280.92 109.69,-280.62"/>
<polygon fill="black" stroke="black" points="112.28,-282.98 117,-273.5 107.39,-277.97 112.28,-282.98"/>
</g>
<!-- node0x557606ccbfb0_0 -->
<g id="node14" class="node">
<title>node0x557606ccbfb0_0</title>
<polygon fill="none" stroke="black" points="90,-97.5 90,-175.5 144,-175.5 144,-97.5 90,-97.5"/>
<text text-anchor="middle" x="117" y="-158.7" font-family="Helvetica,Arial,sans-serif" font-size="16.00">0</text>
<polyline fill="none" stroke="black" points="90,-149.5 144,-149.5 "/>
<text text-anchor="middle" x="117" y="-132.7" font-family="Helvetica,Arial,sans-serif" font-size="16.00"> </text>
<polyline fill="none" stroke="black" points="90,-123.5 144,-123.5 "/>
<text text-anchor="middle" x="117" y="-106.7" font-family="Helvetica,Arial,sans-serif" font-size="16.00">&#45;1</text>
</g>
<!-- table&#45;&gt;node0x557606ccbfb0_0 -->
<g id="edge15" class="edge">
<title>table:f8&#45;&gt;node0x557606ccbfb0_0:f0</title>
<path fill="none" stroke="black" d="M54,-228.5C78.92,-228.5 69.4,-199.53 90,-185.5 95.88,-181.5 103.69,-183.15 109.4,-183.11"/>
<polygon fill="black" stroke="black" points="111.75,-185.7 117,-176.5 107.16,-180.42 111.75,-185.7"/>
</g>
<!-- node0x557606ccbfd0_0 -->
<g id="node17" class="node">
<title>node0x557606ccbfd0_0</title>
<polygon fill="none" stroke="black" points="90,-0.5 90,-78.5 144,-78.5 144,-0.5 90,-0.5"/>
<text text-anchor="middle" x="117" y="-61.7" font-family="Helvetica,Arial,sans-serif" font-size="16.00">0</text>
<polyline fill="none" stroke="black" points="90,-52.5 144,-52.5 "/>
<text text-anchor="middle" x="117" y="-35.7" font-family="Helvetica,Arial,sans-serif" font-size="16.00"> </text>
<polyline fill="none" stroke="black" points="90,-26.5 144,-26.5 "/>
<text text-anchor="middle" x="117" y="-9.7" font-family="Helvetica,Arial,sans-serif" font-size="16.00">&#45;1</text>
</g>
<!-- table&#45;&gt;node0x557606ccbfd0_0 -->
<g id="edge16" class="edge">
<title>table:f9&#45;&gt;node0x557606ccbfd0_0:f0</title>
<path fill="none" stroke="black" d="M54,-150.5C86.25,-150.5 64.72,-107.52 90,-87.5 95.37,-83.25 102.94,-85 108.7,-85.41"/>
<polygon fill="black" stroke="black" points="110.88,-88.15 117,-79.5 106.82,-82.45 110.88,-88.15"/>
</g>
<!-- node0x557606ccbf30_1 -->
<g id="node7" class="node">
<title>node0x557606ccbf30_1</title>
<polygon fill="none" stroke="black" points="180,-485.5 180,-563.5 234,-563.5 234,-485.5 180,-485.5"/>
<text text-anchor="middle" x="207" y="-546.7" font-family="Helvetica,Arial,sans-serif" font-size="16.00">1</text>
<polyline fill="none" stroke="black" points="180,-537.5 234,-537.5 "/>
<text text-anchor="middle" x="207" y="-520.7" font-family="Helvetica,Arial,sans-serif" font-size="16.00">qwq</text>
<polyline fill="none" stroke="black" points="180,-511.5 234,-511.5 "/>
<text text-anchor="middle" x="207" y="-494.7" font-family="Helvetica,Arial,sans-serif" font-size="16.00">0</text>
</g>
<!-- node0x557606ccbf30_0&#45;&gt;node0x557606ccbf30_1 -->
<g id="edge5" class="edge">
<title>node0x557606ccbf30_0:f0&#45;&gt;node0x557606ccbf30_1:f0</title>
<path fill="none" stroke="black" d="M144,-550.5C156,-550.5 161.25,-550.5 169.88,-550.5"/>
<polygon fill="black" stroke="black" points="170,-554 180,-550.5 170,-547 170,-554"/>
</g>
<!-- node0x557606ccbf50_1 -->
<g id="node9" class="node">
<title>node0x557606ccbf50_1</title>
<polygon fill="none" stroke="black" points="180,-388.5 180,-466.5 234,-466.5 234,-388.5 180,-388.5"/>
<text text-anchor="middle" x="207" y="-449.7" font-family="Helvetica,Arial,sans-serif" font-size="16.00">1</text>
<polyline fill="none" stroke="black" points="180,-440.5 234,-440.5 "/>
<text text-anchor="middle" x="207" y="-423.7" font-family="Helvetica,Arial,sans-serif" font-size="16.00">ui</text>
<polyline fill="none" stroke="black" points="180,-414.5 234,-414.5 "/>
<text text-anchor="middle" x="207" y="-397.7" font-family="Helvetica,Arial,sans-serif" font-size="16.00">4</text>
</g>
<!-- node0x557606ccbf50_0&#45;&gt;node0x557606ccbf50_1 -->
<g id="edge7" class="edge">
<title>node0x557606ccbf50_0:f0&#45;&gt;node0x557606ccbf50_1:f0</title>
<path fill="none" stroke="black" d="M144,-453.5C156,-453.5 161.25,-453.5 169.88,-453.5"/>
<polygon fill="black" stroke="black" points="170,-457 180,-453.5 170,-450 170,-457"/>
</g>
<!-- node0x557606ccbf70_1 -->
<g id="node11" class="node">
<title>node0x557606ccbf70_1</title>
<polygon fill="none" stroke="black" points="180,-291.5 180,-369.5 234,-369.5 234,-291.5 180,-291.5"/>
<text text-anchor="middle" x="207" y="-352.7" font-family="Helvetica,Arial,sans-serif" font-size="16.00">1</text>
<polyline fill="none" stroke="black" points="180,-343.5 234,-343.5 "/>
<text text-anchor="middle" x="207" y="-326.7" font-family="Helvetica,Arial,sans-serif" font-size="16.00">er</text>
<polyline fill="none" stroke="black" points="180,-317.5 234,-317.5 "/>
<text text-anchor="middle" x="207" y="-300.7" font-family="Helvetica,Arial,sans-serif" font-size="16.00">2</text>
</g>
<!-- node0x557606ccbf70_0&#45;&gt;node0x557606ccbf70_1 -->
<g id="edge9" class="edge">
<title>node0x557606ccbf70_0:f0&#45;&gt;node0x557606ccbf70_1:f0</title>
<path fill="none" stroke="black" d="M144,-356.5C156,-356.5 161.25,-356.5 169.88,-356.5"/>
<polygon fill="black" stroke="black" points="170,-360 180,-356.5 170,-353 170,-360"/>
</g>
<!-- node0x557606ccbf90_1 -->
<g id="node13" class="node">
<title>node0x557606ccbf90_1</title>
<polygon fill="none" stroke="black" points="180,-194.5 180,-272.5 234,-272.5 234,-194.5 180,-194.5"/>
<text text-anchor="middle" x="207" y="-255.7" font-family="Helvetica,Arial,sans-serif" font-size="16.00">1</text>
<polyline fill="none" stroke="black" points="180,-246.5 234,-246.5 "/>
<text text-anchor="middle" x="207" y="-229.7" font-family="Helvetica,Arial,sans-serif" font-size="16.00">qw</text>
<polyline fill="none" stroke="black" points="180,-220.5 234,-220.5 "/>
<text text-anchor="middle" x="207" y="-203.7" font-family="Helvetica,Arial,sans-serif" font-size="16.00">1</text>
</g>
<!-- node0x557606ccbf90_0&#45;&gt;node0x557606ccbf90_1 -->
<g id="edge11" class="edge">
<title>node0x557606ccbf90_0:f0&#45;&gt;node0x557606ccbf90_1:f0</title>
<path fill="none" stroke="black" d="M144,-259.5C156,-259.5 161.25,-259.5 169.88,-259.5"/>
<polygon fill="black" stroke="black" points="170,-263 180,-259.5 170,-256 170,-263"/>
</g>
<!-- node0x557606ccbfb0_1 -->
<g id="node15" class="node">
<title>node0x557606ccbfb0_1</title>
<polygon fill="none" stroke="black" points="180,-97.5 180,-175.5 234,-175.5 234,-97.5 180,-97.5"/>
<text text-anchor="middle" x="207" y="-158.7" font-family="Helvetica,Arial,sans-serif" font-size="16.00">1</text>
<polyline fill="none" stroke="black" points="180,-149.5 234,-149.5 "/>
<text text-anchor="middle" x="207" y="-132.7" font-family="Helvetica,Arial,sans-serif" font-size="16.00">test+</text>
<polyline fill="none" stroke="black" points="180,-123.5 234,-123.5 "/>
<text text-anchor="middle" x="207" y="-106.7" font-family="Helvetica,Arial,sans-serif" font-size="16.00">0</text>
</g>
<!-- node0x557606ccbfb0_0&#45;&gt;node0x557606ccbfb0_1 -->
<g id="edge13" class="edge">
<title>node0x557606ccbfb0_0:f0&#45;&gt;node0x557606ccbfb0_1:f0</title>
<path fill="none" stroke="black" d="M144,-162.5C156,-162.5 161.25,-162.5 169.88,-162.5"/>
<polygon fill="black" stroke="black" points="170,-166 180,-162.5 170,-159 170,-166"/>
</g>
<!-- node0x557606ccbfb0_2 -->
<g id="node16" class="node">
<title>node0x557606ccbfb0_2</title>
<polygon fill="none" stroke="black" points="270,-97.5 270,-175.5 324,-175.5 324,-97.5 270,-97.5"/>
<text text-anchor="middle" x="297" y="-158.7" font-family="Helvetica,Arial,sans-serif" font-size="16.00">2</text>
<polyline fill="none" stroke="black" points="270,-149.5 324,-149.5 "/>
<text text-anchor="middle" x="297" y="-132.7" font-family="Helvetica,Arial,sans-serif" font-size="16.00">ty</text>
<polyline fill="none" stroke="black" points="270,-123.5 324,-123.5 "/>
<text text-anchor="middle" x="297" y="-106.7" font-family="Helvetica,Arial,sans-serif" font-size="16.00">3</text>
</g>
<!-- node0x557606ccbfb0_1&#45;&gt;node0x557606ccbfb0_2 -->
<g id="edge14" class="edge">
<title>node0x557606ccbfb0_1:f0&#45;&gt;node0x557606ccbfb0_2:f0</title>
<path fill="none" stroke="black" d="M234,-162.5C246,-162.5 251.25,-162.5 259.88,-162.5"/>
<polygon fill="black" stroke="black" points="260,-166 270,-162.5 260,-159 260,-166"/>
</g>
</g>
</svg>
